<svg width="185" height="35" viewBox="0 0 185 35" fill="none" xmlns="http://www.w3.org/2000/svg">
<g clip-path="url(#clip0_250_1565)">
<path d="M45.7627 11.0344V1.65167H51.975V11.0344H58.1873V17.2889H51.975V20.4172C51.975 22.143 52.5825 23.6175 53.7955 24.8388C55.0085 26.06 56.4731 26.6717 58.1873 26.6717V32.9262C56.5365 32.9262 54.9512 32.609 53.4314 31.9726C51.9095 31.3383 50.5676 30.4343 49.4037 29.2604C48.2398 28.0865 47.3418 26.7355 46.7098 25.2033C46.0797 23.6731 45.7627 22.075 45.7627 20.4151V17.2869H42.6555V11.0324H45.7627V11.0344Z" fill="white"/>
<path d="M66.5126 20.4172V32.9262H60.3003V20.4172C60.3003 18.7553 60.6153 17.1592 61.2474 15.629C61.8774 14.0989 62.7754 12.7458 63.9413 11.572C65.1053 10.4002 66.4492 9.49607 67.969 8.8597C69.4888 8.2254 71.0762 7.90619 72.7249 7.90619V14.1607C71.0107 14.1607 69.5461 14.7723 68.3331 15.9936C67.1201 17.2148 66.5126 18.6894 66.5126 20.4152V20.4172Z" fill="white"/>
<path d="M85.2763 32.9262C83.6255 32.9262 82.0402 32.609 80.5204 31.9727C78.9985 31.3384 77.6567 30.4343 76.4927 29.2604C75.3288 28.0865 74.4308 26.7355 73.7988 25.2033C73.1687 23.6732 72.8517 22.075 72.8517 20.4151C72.8517 18.7552 73.1667 17.1571 73.7988 15.627C74.4288 14.0968 75.3268 12.7438 76.4927 11.5699C77.6567 10.3981 79.0006 9.49399 80.5204 8.85763C82.0402 8.22332 83.6276 7.90411 85.2763 7.90411C86.925 7.90411 88.5123 8.22127 90.0321 8.85763C91.552 9.49193 92.8959 10.396 94.0598 11.5699C95.2237 12.7438 96.1217 14.0948 96.7538 15.627C97.3838 17.1592 97.7008 18.7552 97.7008 20.4151C97.7008 22.075 97.3858 23.6732 96.7538 25.2033C96.1237 26.7355 95.2257 28.0865 94.0598 29.2604C92.8959 30.4322 91.552 31.3363 90.0321 31.9727C88.5103 32.607 86.925 32.9262 85.2763 32.9262ZM85.2763 26.6717C86.9904 26.6717 88.455 26.06 89.668 24.8388C90.881 23.6176 91.4886 22.143 91.4886 20.4172C91.4886 18.6914 90.881 17.2169 89.668 15.9956C88.455 14.7744 86.9904 14.1627 85.2763 14.1627C83.5621 14.1627 82.0975 14.7744 80.8845 15.9956C79.6715 17.2169 79.064 18.6914 79.064 20.4172C79.064 22.143 79.6715 23.6176 80.8845 24.8388C82.0975 26.06 83.5621 26.6717 85.2763 26.6717Z" fill="white"/>
<path d="M111.244 32.9262C109.594 32.9262 108.008 32.609 106.488 31.9727C104.967 31.3384 103.625 30.4343 102.461 29.2604C101.297 28.0865 100.399 26.7355 99.7668 25.2033C99.1368 23.6732 98.8198 22.075 98.8198 20.4151C98.8198 18.7552 99.1348 17.1571 99.7668 15.627C100.397 14.0968 101.295 12.7438 102.461 11.5699C103.625 10.3981 104.969 9.49399 106.488 8.85763C108.008 8.22332 109.596 7.90411 111.244 7.90411C112.893 7.90411 114.48 8.22127 116 8.85763C117.52 9.49193 118.864 10.396 120.028 11.5699C121.192 12.7438 122.09 14.0948 122.722 15.627C123.352 17.1592 123.669 18.7552 123.669 20.4151C123.669 22.075 123.354 23.6732 122.722 25.2033C122.092 26.7355 121.194 28.0865 120.028 29.2604C118.864 30.4322 117.52 31.3363 116 31.9727C114.478 32.607 112.893 32.9262 111.244 32.9262ZM111.244 26.6717C112.959 26.6717 114.423 26.06 115.636 24.8388C116.849 23.6176 117.457 22.143 117.457 20.4172C117.457 18.6914 116.849 17.2169 115.636 15.9956C114.423 14.7744 112.959 14.1627 111.244 14.1627C109.53 14.1627 108.066 14.7744 106.853 15.9956C105.64 17.2169 105.032 18.6914 105.032 20.4172C105.032 22.143 105.64 23.6176 106.853 24.8388C108.066 26.06 109.53 26.6717 111.244 26.6717Z" fill="white"/>
<path d="M134.186 21.3359L134.176 22.2845H132.909V14.9518H134.217V18.0341C134.512 17.4433 135.119 17.0348 135.93 17.0348C137.359 17.0348 138.264 18.1995 138.264 19.7187C138.264 21.2379 137.362 22.3925 135.91 22.3925C135.048 22.3925 134.461 21.9537 134.186 21.3325V21.3359ZM136.946 19.7221C136.946 18.8646 136.47 18.1691 135.578 18.1691C134.686 18.1691 134.22 18.8646 134.22 19.7221C134.22 20.5796 134.686 21.2616 135.578 21.2616C136.47 21.2616 136.946 20.5762 136.946 19.7221Z" fill="white"/>
<path d="M143.495 22.2846H142.247L142.237 21.4372C142.002 21.9673 141.496 22.3758 140.735 22.3758C139.648 22.3758 139.011 21.6398 139.011 20.5291V17.1497H140.319V20.2117C140.319 20.8025 140.604 21.2009 141.201 21.2009C141.798 21.2009 142.183 20.8228 142.183 20.0159V17.1463H143.491V22.2812L143.495 22.2846Z" fill="white"/>
<path d="M144.602 14.9551H145.93V16.3224H144.602V14.9551ZM144.612 17.1495H145.92V22.2844H144.612V17.1495Z" fill="white"/>
<path d="M147.036 14.9551H148.344V22.2878H147.036V14.9551Z" fill="white"/>
<path d="M152.341 17.1495V18.2096H150.953V20.3939C150.953 20.9543 151.228 21.1805 151.795 21.1805C151.966 21.1805 152.2 21.1298 152.382 21.0387V22.0987C152.18 22.2608 151.765 22.3452 151.409 22.3452C150.232 22.3452 149.645 21.7105 149.645 20.6808V18.2096H148.955V17.9226L150.557 16.0354H150.953V17.1495H152.341Z" fill="white"/>
<path d="M156.926 14.9047C157.231 14.9047 157.523 14.9553 157.687 15.0566L157.888 16.1572C157.727 16.0964 157.523 16.0559 157.271 16.0559C156.765 16.0559 156.49 16.2585 156.49 16.7615V17.1497H157.787V18.2098H156.49V22.2847H155.182V18.2098H154.34L154.521 17.1497H155.182V16.7514C155.182 15.2693 156.225 14.9047 156.926 14.9047Z" fill="white"/>
<path d="M163.434 19.7115C163.434 21.2543 162.421 22.4494 160.694 22.4494C158.968 22.4494 157.955 21.2543 157.955 19.7115C157.955 18.1686 158.968 16.987 160.694 16.987C162.421 16.987 163.434 18.1821 163.434 19.7115ZM159.276 19.7115C159.276 20.5588 159.762 21.3049 160.694 21.3049C161.627 21.3049 162.113 20.5588 162.113 19.7115C162.113 18.8641 161.627 18.1281 160.694 18.1281C159.762 18.1281 159.276 18.8641 159.276 19.7115Z" fill="white"/>
<path d="M166.6 18.4568C165.979 18.4568 165.554 18.7843 165.554 19.7431V22.2852H164.246V17.1503H165.483L165.493 18.2644C165.718 17.5892 166.134 17.0693 166.861 17.0693C167.096 17.0693 167.327 17.1503 167.472 17.3056L167.227 18.6222C167.056 18.521 166.821 18.4602 166.6 18.4602V18.4568Z" fill="white"/>
<path d="M135.263 28.9553C134.642 28.9553 134.217 29.2828 134.217 30.2416V32.7837H132.909V27.6488H134.146L134.156 28.7629C134.381 28.0877 134.797 27.5677 135.524 27.5677C135.759 27.5677 135.99 27.6488 136.135 27.8041L135.89 29.1207C135.719 29.0194 135.484 28.9587 135.263 28.9587V28.9553Z" fill="white"/>
<path d="M139.297 32.9156C137.289 32.9156 136.286 31.7711 136.286 30.2013C136.286 28.7631 137.218 27.5173 138.871 27.5173C140.31 27.5173 141.151 28.7023 141.151 30.0797C141.151 30.262 141.141 30.5186 141.111 30.6807H137.644C137.805 31.4065 138.385 31.8049 139.438 31.8049C140.005 31.8049 140.585 31.6327 140.917 31.3863V32.5409C140.551 32.7873 139.84 32.919 139.294 32.919L139.297 32.9156ZM138.821 28.6179C138.16 28.6179 137.734 29.0568 137.624 29.7624H139.874C139.793 29.0669 139.408 28.6179 138.818 28.6179H138.821Z" fill="white"/>
<path d="M145.068 29.0162C144.682 28.7394 144.206 28.6381 143.841 28.6381C143.314 28.6381 143.059 28.8001 143.059 29.077C143.059 29.2795 143.15 29.3842 143.536 29.5361L144.347 29.8636C145.088 30.1607 145.494 30.5286 145.494 31.2714C145.494 32.3011 144.692 32.9256 143.455 32.9256C142.888 32.9256 142.208 32.7838 141.882 32.4766V31.2916C142.449 31.7103 143.009 31.8217 143.465 31.8217C143.961 31.8217 144.216 31.6596 144.216 31.3625C144.216 31.1363 144.086 31.0553 143.7 30.9034L142.868 30.5759C142.198 30.3126 141.772 29.9311 141.772 29.1479C141.772 28.1891 142.573 27.524 143.941 27.524C144.468 27.524 145.018 27.6557 145.35 27.9021L145.065 29.0162H145.068Z" fill="white"/>
<path d="M149.165 27.6486V28.7087H147.776V30.893C147.776 31.4534 148.051 31.6796 148.618 31.6796C148.789 31.6796 149.024 31.629 149.205 31.5378V32.5979C149.004 32.7599 148.588 32.8443 148.232 32.8443C147.055 32.8443 146.469 32.2097 146.469 31.18V28.7087H145.778V28.4217L147.381 26.5345H147.776V27.6486H149.165Z" fill="white"/>
<path d="M153.87 32.784H152.643L152.633 31.9265C152.398 32.5173 151.952 32.865 151.285 32.865C150.282 32.865 149.652 32.1594 149.652 31.3323C149.652 29.9245 150.889 29.7388 151.912 29.6476L152.583 29.5869V29.4755C152.583 28.9556 152.086 28.6787 151.376 28.6787C150.839 28.6787 150.323 28.8205 149.823 29.0973L150.138 27.8921C150.634 27.6355 151.171 27.5545 151.671 27.5545C152.858 27.5545 153.87 28.1149 153.87 29.4417V32.7806V32.784ZM151.711 31.8252C152.177 31.8252 152.583 31.4369 152.583 30.8056V30.4478L151.862 30.5187C151.255 30.5794 150.96 30.7617 150.96 31.1837C150.96 31.5416 151.194 31.8286 151.711 31.8286V31.8252Z" fill="white"/>
<path d="M159.315 32.7844H158.068L158.058 31.937C157.823 32.467 157.317 32.8755 156.556 32.8755C155.469 32.8755 154.832 32.1395 154.832 31.0288V27.6494H156.14V30.7115C156.14 31.3023 156.425 31.7007 157.022 31.7007C157.619 31.7007 158.004 31.3226 158.004 30.5157V27.6461H159.312V32.781L159.315 32.7844Z" fill="white"/>
<path d="M162.786 28.9553C162.166 28.9553 161.74 29.2828 161.74 30.2416V32.7837H160.432V27.6488H161.669L161.679 28.7629C161.904 28.0877 162.32 27.5677 163.048 27.5677C163.282 27.5677 163.514 27.6488 163.658 27.8041L163.413 29.1207C163.242 29.0194 163.007 28.9587 162.786 28.9587V28.9553Z" fill="white"/>
<path d="M167.988 32.784H166.76L166.75 31.9265C166.516 32.5173 166.07 32.865 165.402 32.865C164.4 32.865 163.769 32.1594 163.769 31.3323C163.769 29.9245 165.007 29.7388 166.029 29.6476L166.7 29.5869V29.4755C166.7 28.9556 166.204 28.6787 165.493 28.6787C164.956 28.6787 164.44 28.8205 163.94 29.0973L164.255 27.8921C164.752 27.6355 165.288 27.5545 165.788 27.5545C166.975 27.5545 167.988 28.1149 167.988 29.4417V32.7806V32.784ZM165.828 31.8252C166.294 31.8252 166.7 31.4369 166.7 30.8056V30.4478L165.979 30.5187C165.372 30.5794 165.077 30.7617 165.077 31.1837C165.077 31.5416 165.312 31.8286 165.828 31.8286V31.8252Z" fill="white"/>
<path d="M171.314 28.7293C170.684 28.7293 170.321 29.1378 170.321 29.894V32.7839H169.014V27.649H170.281L170.291 28.4862C170.566 27.9055 171.103 27.5578 171.814 27.5578C172.88 27.5578 173.517 28.2938 173.517 29.4045V32.7839H172.209V29.7421C172.209 29.1412 171.924 28.7327 171.317 28.7327L171.314 28.7293Z" fill="white"/>
<path d="M177.45 27.6486V28.7087H176.062V30.893C176.062 31.4534 176.337 31.6796 176.904 31.6796C177.075 31.6796 177.31 31.629 177.491 31.5378V32.5979C177.289 32.7599 176.874 32.8443 176.518 32.8443C175.341 32.8443 174.754 32.2097 174.754 31.18V28.7087H174.064V28.4217L175.666 26.5345H176.062V27.6486H177.45Z" fill="white"/>
<path d="M181.303 29.0162C180.917 28.7394 180.441 28.6381 180.076 28.6381C179.549 28.6381 179.294 28.8001 179.294 29.077C179.294 29.2795 179.385 29.3842 179.77 29.5361L180.582 29.8636C181.323 30.1607 181.729 30.5286 181.729 31.2714C181.729 32.3011 180.927 32.9256 179.69 32.9256C179.123 32.9256 178.443 32.7838 178.117 32.4766V31.2916C178.684 31.7103 179.244 31.8217 179.7 31.8217C180.196 31.8217 180.451 31.6596 180.451 31.3625C180.451 31.1363 180.32 31.0553 179.935 30.9034L179.103 30.5759C178.433 30.3126 178.007 29.9311 178.007 29.1479C178.007 28.1891 178.808 27.524 180.176 27.524C180.703 27.524 181.253 27.6557 181.585 27.9021L181.3 29.0162H181.303Z" fill="white"/>
<path d="M129.656 14H128.576V32.926H129.656V14Z" fill="white"/>
<path d="M-2.96601e-05 20.5696C1.61799 28.795 8.82236 34.998 17.4688 34.998C27.3079 34.998 35.2814 26.9683 35.2814 17.0645C35.2814 9.56195 30.7075 3.13859 24.213 0.465454C28.7254 3.41868 31.7078 8.53842 31.7078 14.3604C31.7078 23.5084 24.3418 30.9224 15.2556 30.9224C8.35189 30.9224 2.43825 26.6387 -0.0020752 20.5696H-2.96601e-05Z" fill="white"/>
<path d="M1.17615 16.5578C2.41779 22.9771 8.03483 27.8229 14.7749 27.8229C22.4272 27.8229 28.6293 21.5766 28.6293 13.8744C28.6272 6.65196 23.1738 0.710503 16.1842 0C20.8194 1.68667 24.1311 6.15563 24.1311 11.4051C24.1311 18.1044 18.7371 23.5352 12.0829 23.5352C7.25752 23.5352 3.09895 20.6808 1.17615 16.5578Z" fill="white"/>
<path d="M2.11914 10.9005C2.11914 15.2665 4.96653 18.9632 8.89191 20.2153C6.92819 18.6502 5.67019 16.2242 5.67019 13.5078C5.67019 8.77932 9.47489 4.94878 14.1714 4.94878C17.16 4.94878 19.7885 6.50159 21.3063 8.8514C20.3694 4.4401 16.4768 1.13678 11.8191 1.13678C6.46181 1.13678 2.11914 5.50689 2.11914 10.9005Z" fill="white"/>
</g>
<defs>
<clipPath id="clip0_250_1565">
<rect width="185" height="35" fill="white"/>
</clipPath>
</defs>
</svg>
